<?xml version="1.0" encoding="utf-8"?>
<!-- Generator: Adobe Illustrator 24.3.0, SVG Export Plug-In . SVG Version: 6.00 Build 0)  -->
<svg version="1.1" id="Layer_1" xmlns="http://www.w3.org/2000/svg" xmlns:xlink="http://www.w3.org/1999/xlink" x="0px" y="0px"
	 viewBox="0 0 595.28 283" style="enable-background:new 0 0 595.28 283;" xml:space="preserve">
<style type="text/css">
	.st0{fill-rule:evenodd;clip-rule:evenodd;fill:#7D7E7F;}
	.st1{fill-rule:evenodd;clip-rule:evenodd;fill:#E12532;}
</style>
<g>
	<path class="st0" d="M341.2,138.91c-10.36-13.19-1.88-33.91,16.48-33.91h38.15l-3.3,8.95h-20.25h-10.36
		c-5.18,0-8.01,6.59-5.18,10.36c4.71,7.06,12.72,12.25,17.9,19.78c10.83,15.07-0.47,33.91-16.48,34.38h-41.92l3.3-9.42h22.61h10.36
		c5.18,0,8.01-6.59,5.18-10.36C353.45,152.1,346.39,145.5,341.2,138.91L341.2,138.91z M302.58,178.47h-20.72L308.71,105h20.72
		L302.58,178.47z M404.79,178.47h-20.72L410.91,105h20.72L404.79,178.47z M436.34,127.13c7.06-15.54,22.14-23.55,36.27-23.08h5.65
		h7.54c10.83,0.47,17.43,9.42,17.9,16.96c0,1.88,0,3.3,0,4.71c-0.47,0.94-0.47,1.88-0.94,2.83c-1.88,9.42-5.65,18.84-9.89,27.32
		c-7.54,15.54-22.61,23.55-36.74,23.08h-5.65l0,0h-7.06c-10.83-0.47-17.43-9.42-18.37-16.96c0-1.88,0-3.3,0.47-4.71
		c0-0.94,0-1.88,0.47-2.35C428.34,145.5,431.63,135.61,436.34,127.13L436.34,127.13z M475.44,111.59L475.44,111.59
		c-7.54,0.47-14.13,4.71-16.96,11.77l-13.66,37.68c-0.47,0.94-0.47,1.88-0.47,2.83l0,0c0,3.77,3.3,7.06,7.06,7.54h1.88
		c7.54-0.47,14.13-4.71,16.96-11.77l13.66-37.68c0.47-0.47,0.47-1.41,0.47-2.83l0,0c0-3.77-2.83-7.06-7.06-7.54H475.44z
		 M254.54,155.39l33.44-50.4h12.25l-47.1,70.18c-0.94,1.88-3.3,2.83-5.65,3.3h-0.47c0,0,0,0,0-0.47v0.47h-0.94H239h-3.77L229.58,105
		h20.72L254.54,155.39z M525.36,128.55v-0.94l-18.84,50.87h-10.36L523.01,105h13.66l19.78,49.45L574.82,105h10.36l-26.85,73.47
		h-9.89c-2.83-0.47-5.18-1.88-6.12-4.71L525.36,128.55z"/>
	<path class="st1" d="M117.01,178.47H94.88L121.72,105h0.94h20.72h0.47L117.01,178.47z M48.72,133.26h26.38L85.46,105h22.14
		l-25.43,68.76l0,0c-0.94,2.83-3.77,4.24-6.59,4.71H58.61l12.72-35.32H44.95l-12.72,35.32H10.1L37.41,105h21.67L48.72,133.26z
		 M170.71,132.32L206.5,105h16.48l-36.74,28.26L209.33,178h-18.37l0,0c-2.83,0.47-5.65-1.41-6.59-3.77l0,0l0,0l-14.6-28.26
		l-5.65,4.24l-10.36,28.26h-22.14L158.46,105h22.14L170.71,132.32z"/>
</g>
</svg>
