<?xml version="1.0" encoding="utf-8"?>
<!-- Generator: Adobe Illustrator 24.3.0, SVG Export Plug-In . SVG Version: 6.00 Build 0)  -->
<svg version="1.1" id="Layer_1" xmlns="http://www.w3.org/2000/svg" xmlns:xlink="http://www.w3.org/1999/xlink" x="0px" y="0px"
	 viewBox="0 0 595.28 283" style="enable-background:new 0 0 595.28 283;" xml:space="preserve">
<style type="text/css">
	.st0{fill-rule:evenodd;clip-rule:evenodd;fill:#EC332F;}
	.st1{fill-rule:evenodd;clip-rule:evenodd;fill:#272424;}
</style>
<g>
	<path class="st0" d="M71.56,66.63h24.39v78.04H71.56v-35.61H53.02v35.61H28.63V66.63h24.39v32.68h18.54V66.63z M163.74,100.77
		c4.39,7.8,4.88,18.54,1.95,27.32c-3.41,8.78-9.27,13.17-13.66,15.12c-3.9,2.44-10.73,3.9-17.07,3.9c-6.34,0-14.63-1.46-20-5.85
		c-5.85-4.39-9.27-9.27-10.73-15.61c-1.95-6.83-2.93-18.05,3.9-27.32c7.32-9.27,15.61-10.73,20-11.71c3.41-0.49,5.85-0.49,6.34-0.49
		c0,0,7.8-0.49,14.15,1.95C154.48,90.53,159.35,92.97,163.74,100.77L163.74,100.77z M143.26,108.58c0-4.39-0.98-7.8-1.46-9.27
		c-1.46-2.93-3.41-6.34-6.83-6.34c-0.49,0-0.98,0-0.98,0.49c-1.95,0.49-3.9,1.95-5.37,5.85c-1.46,2.93-1.46,7.8-1.46,14.63
		c0,1.95,0,3.9,0,6.34c-0.49,10.24,0.49,13.17,2.93,16.58c0.98,1.95,2.44,2.93,4.39,3.41c1.46,0,2.93-0.49,3.9-1.46
		c3.41-2.93,4.39-9.27,4.39-11.22C143.26,125.16,143.26,116.38,143.26,108.58L143.26,108.58z M224.72,88.09
		c-7.8-3.41-16.1-1.46-20.49,0.98c-4.39,1.95-7.8,6.34-7.8,6.34v-7.8h-22.44v57.07h22.44V103.7c0-0.49,2.93-3.9,5.85-5.37
		c2.93-1.46,6.83-0.98,8.29,0.98c1.46,1.95,1.46,4.39,1.46,5.85v39.51h22.44v-43.41C233.98,98.82,232.52,91.5,224.72,88.09
		L224.72,88.09z M301.78,101.26c4.39,7.8,3.41,18.54,3.41,18.54h-40v11.71c0,0,0.49,1.95,0.98,3.41c0.98,0.98,4.39,5.85,15.61,4.39
		c11.71-1.95,11.71-10.73,11.71-10.73h9.76c0,0,0,5.85-3.9,9.76c-4.39,3.9-11.22,7.8-19.02,8.29c-8.29,0.98-19.51,0.98-28.29-6.34
		c-5.37-4.88-7.8-9.27-9.27-13.66c-1.95-5.37-2.44-16.1,1.95-24.88c4.39-9.27,15.61-16.58,29.75-15.61
		C288.61,86.63,296.91,91.5,301.78,101.26L301.78,101.26z M281.79,107.11c0-2.93-0.49-6.34-0.98-7.32v-0.49
		c-0.49-0.98-0.49-2.44-2.93-4.88c-1.95-1.95-6.34-1.95-8.29-0.49c-1.46,0.98-3.41,3.9-3.9,7.32c-0.98,2.93-0.49,8.78-0.49,10.24
		h16.58C281.79,111.01,281.79,109.55,281.79,107.11L281.79,107.11z M506.16,101.26c4.39,7.8,3.9,18.54,3.41,18.54h-40v11.71
		c0,0,0.49,1.95,1.46,3.41c0.98,0.98,3.9,5.85,15.12,4.39c12.19-1.95,11.71-10.73,12.19-10.73h9.76c0,0-0.49,5.85-4.39,9.76
		c-3.9,3.9-10.73,7.8-19.02,8.29c-7.8,0.98-19.02,0.98-28.29-6.34c-5.37-4.88-7.8-9.27-9.27-13.66c-1.95-5.37-2.44-16.1,1.95-24.88
		c4.88-9.27,16.1-16.58,30.24-15.61C493.48,86.63,501.28,91.5,506.16,101.26L506.16,101.26z M486.65,107.11
		c0-2.93-0.49-6.34-0.98-7.32v-0.49c-0.49-0.98-0.49-2.44-2.93-4.88c-1.95-1.95-6.34-1.95-8.29-0.49c-1.46,0.98-3.41,3.9-3.9,7.32
		c-0.98,2.93-0.98,8.78-0.49,10.24h16.58C486.65,111.01,486.65,109.55,486.65,107.11L486.65,107.11z M436.9,87.6l-8.78,32.19
		l-9.27-32.19h-20l-8.29,32.19L380.32,87.6h-30.73l-11.22,27.32L328.12,87.6h-24.39l22.44,58.53c0,0,0,0.98-0.49,2.44
		c-0.49,1.46-1.95,5.85-4.88,8.78c-2.93,2.93-5.85,1.95-5.85,1.95s1.46-0.98,1.95-2.44c0.49-1.95,0.49-4.39-0.98-7.32
		c-0.98-2.44-4.39-4.88-9.76-3.41c-5.37,0.98-7.8,5.85-7.32,10.24c0.49,4.88,3.41,8.78,11.22,10.24c7.8,1.46,12.19-1.46,16.58-4.88
		c3.9-3.9,7.32-13.66,7.32-13.66l23.9-58.04l17.07,55.12h19.02l8.78-33.17L413,145.16h18.54l15.61-57.07H436.9V87.6L436.9,87.6z
		 M516.4,144.67h21.95V66.63H516.4V144.67z M545.18,66.63v78.04h21.46V66.63H545.18z"/>
	<polygon class="st1" points="47.17,191.5 47.17,192.96 39.36,192.96 39.36,215.4 36.92,215.4 36.92,192.96 29.12,192.96 
		29.12,191.5 	"/>
	<polygon class="st1" points="71.56,204.18 56.43,204.18 56.43,215.89 54.48,215.89 54.48,191.5 56.43,191.5 56.43,202.72 
		71.56,202.72 71.56,191.5 73.51,191.5 73.51,215.89 71.56,215.89 	"/>
	<polygon class="st1" points="83.26,191.5 100.33,191.5 100.33,192.96 85.21,192.96 85.21,202.72 98.38,202.72 98.38,204.18 
		85.21,204.18 85.21,213.93 100.82,213.93 100.82,215.89 83.26,215.89 	"/>
	<path class="st1" d="M118.87,191.5h9.27c5.85,0,8.29,2.44,8.29,7.32c0,4.88-2.44,7.8-8.29,7.8h-7.32v8.78h-1.95V191.5z
		 M120.82,192.96v12.19h7.32c3.9,0,5.85-1.95,5.85-5.85c0-3.9-1.46-5.85-5.85-5.85h-7.32V192.96z"/>
	<path class="st1" d="M142.28,203.69c0-9.27,3.9-12.68,10.73-12.68s10.73,3.41,10.73,12.68c0,8.78-3.9,12.19-10.73,12.19
		S142.28,212.47,142.28,203.69L142.28,203.69z M144.23,203.69c0,8.29,3.41,10.73,8.78,10.73c5.37,0,8.29-2.44,8.29-10.73
		c0-8.29-2.93-10.73-8.29-10.73C147.65,192.47,144.23,195.4,144.23,203.69L144.23,203.69z"/>
	<polygon class="st1" points="184.23,191.5 190.57,212.96 196.91,191.5 198.86,191.5 191.06,215.89 189.11,215.89 183.26,194.42 
		177.4,215.89 175.45,215.89 168.13,191.5 170.09,191.5 176.43,212.96 182.28,191.5 	"/>
	<polygon class="st1" points="205.21,191.5 222.28,191.5 222.28,192.96 207.16,192.96 207.16,202.72 220.33,202.72 220.33,204.18 
		207.16,204.18 207.16,213.93 222.76,213.93 222.76,215.89 205.21,215.89 205.21,191.5 	"/>
	<path class="st1" d="M230.57,191.5h9.27c5.37,0,7.8,2.44,7.8,7.32c0,3.41-1.46,5.85-4.88,6.83l5.37,10.24h-2.44l-5.37-9.76h-0.49
		h-7.32v9.76h-2.44V191.5H230.57z M232.52,192.96v11.22h7.32c3.9,0,5.85-1.95,5.85-5.85c0-3.41-1.95-5.37-5.85-5.37H232.52
		L232.52,192.96z"/>
	<path class="st1" d="M265.2,203.69c0-9.27,3.41-12.68,10.24-12.68c7.32,0,10.73,3.41,10.73,12.68c0,8.78-3.41,12.19-10.73,12.19
		C268.62,215.89,265.2,212.47,265.2,203.69L265.2,203.69z M267.15,203.69c0,8.29,2.93,10.73,8.29,10.73c5.85,0,8.78-2.44,8.78-10.73
		c0-8.29-2.93-10.73-8.78-10.73C270.08,192.47,267.15,195.4,267.15,203.69L267.15,203.69z"/>
	<polygon class="st1" points="295.44,191.5 312.03,191.5 312.03,192.96 297.39,192.96 297.39,202.72 310.56,202.72 310.56,204.18 
		297.39,204.18 297.39,215.4 295.44,215.4 	"/>
	<path class="st1" d="M327.15,203.69c0-8.78,3.9-12.68,11.71-12.68c4.88,0,8.29,1.46,9.76,5.37l-4.39,2.44
		c-0.98-2.44-2.44-2.93-5.37-2.93c-3.9,0-5.85,1.46-5.85,7.8s2.44,8.29,6.34,8.29c2.44,0,4.39-0.98,5.37-3.9l4.39,2.44
		c-1.95,3.9-4.88,5.85-10.24,5.85C331.05,215.89,327.15,211.98,327.15,203.69L327.15,203.69z"/>
	<path class="st1" d="M353.98,203.69c0-8.29,3.41-12.68,11.71-12.68c7.8,0,11.71,4.39,11.71,12.68c0,8.29-3.9,12.19-11.71,12.19
		C357.39,215.89,353.98,211.98,353.98,203.69L353.98,203.69z M359.34,203.69c0,5.85,2.44,7.8,6.34,7.8s5.85-1.95,5.85-7.8
		s-1.95-7.8-5.85-7.8C361.78,195.4,359.34,197.84,359.34,203.69L359.34,203.69z"/>
	<polygon class="st1" points="388.61,200.28 389.09,215.89 383.73,215.89 383.73,191.5 388.12,191.5 399.83,207.59 399.34,191.5 
		404.7,191.5 404.7,215.89 399.83,215.89 	"/>
	<polygon class="st1" points="418.36,200.28 418.36,215.89 413,215.89 413,191.5 417.87,191.5 429.58,207.59 429.09,191.5 
		434.46,191.5 434.46,215.89 429.58,215.89 	"/>
	<polygon class="st1" points="442.75,191.5 461.29,191.5 461.29,195.89 448.6,195.89 448.6,201.25 459.82,201.25 459.82,205.64 
		448.6,205.64 448.6,211.5 461.77,211.5 461.77,215.89 442.75,215.89 442.75,191.5 	"/>
	<path class="st1" d="M467.14,203.69c0-8.78,3.9-12.68,11.71-12.68c4.88,0,7.8,1.46,9.76,5.37l-4.88,2.44
		c-0.98-2.44-2.44-2.93-4.88-2.93c-3.9,0-5.85,1.46-5.85,7.8s1.95,8.29,5.85,8.29c2.44,0,4.39-0.98,5.37-3.9l4.88,2.44
		c-1.95,3.9-5.37,5.85-10.24,5.85C471.04,215.89,467.14,211.98,467.14,203.69L467.14,203.69z"/>
	<polygon class="st1" points="513.48,191.5 513.48,196.37 506.16,196.37 506.16,215.4 500.79,215.4 500.79,196.37 492.99,196.37 
		492.99,191.5 	"/>
	<polygon class="st1" points="519.82,191.5 538.35,191.5 538.35,195.89 525.18,195.89 525.18,201.25 536.89,201.25 536.89,205.64 
		525.18,205.64 525.18,211.5 538.84,211.5 538.84,215.89 519.82,215.89 519.82,191.5 	"/>
	<path class="st1" d="M545.18,215.89V191.5h10.73c7.32,0,10.73,3.9,10.73,11.71c0,8.29-3.9,12.68-11.22,12.68H545.18z
		 M554.94,211.01c3.41,0,5.85-1.46,5.85-7.32c0-5.37-1.95-7.32-5.37-7.32h-4.39v14.63H554.94z"/>
</g>
</svg>
